<svg width="52" height="30" viewBox="0 0 52 30" fill="none" xmlns="http://www.w3.org/2000/svg">
<rect x="26" y="2" width="26" height="26" rx="9" fill="#1EA7FF"/>
<path d="M35.952 20V10.2H39.886C40.9033 10.2 41.678 10.438 42.21 10.914C42.7513 11.3807 43.022 11.9827 43.022 12.72C43.022 13.336 42.854 13.8307 42.518 14.204C42.1913 14.568 41.79 14.8153 41.314 14.946C41.874 15.058 42.336 15.338 42.7 15.786C43.064 16.2247 43.246 16.738 43.246 17.326C43.246 18.1007 42.966 18.74 42.406 19.244C41.846 19.748 41.0527 20 40.026 20H35.952ZM37.744 14.316H39.62C40.124 14.316 40.5113 14.1993 40.782 13.966C41.0527 13.7327 41.188 13.4013 41.188 12.972C41.188 12.5613 41.0527 12.2393 40.782 12.006C40.5207 11.7633 40.124 11.642 39.592 11.642H37.744V14.316ZM37.744 18.544H39.746C40.278 18.544 40.6887 18.4227 40.978 18.18C41.2767 17.928 41.426 17.578 41.426 17.13C41.426 16.6727 41.272 16.3133 40.964 16.052C40.656 15.7907 40.2407 15.66 39.718 15.66H37.744V18.544Z" fill="white"/>
<rect width="30" height="30" rx="9" fill="white"/>
<rect x="2" y="2" width="26" height="26" rx="9" fill="#5051F9"/>
<path d="M10.322 20L13.906 10.2H15.922L19.506 20H17.602L16.818 17.732H12.996L12.198 20H10.322ZM13.486 16.332H16.328L14.9 12.258L13.486 16.332Z" fill="white"/>
</svg>
