<svg width="15" height="8" viewBox="0 0 15 8" fill="none" xmlns="http://www.w3.org/2000/svg">
<path d="M7.85253 7.37079L13.832 1.71079C13.9312 1.61783 14.0099 1.50723 14.0636 1.38537C14.1174 1.26351 14.145 1.1328 14.145 1.00079C14.145 0.868781 14.1174 0.738075 14.0636 0.616216C14.0099 0.494356 13.9312 0.383755 13.832 0.290792C13.6337 0.104542 13.3655 -3.21983e-08 13.0859 -4.37462e-08C12.8063 -5.52942e-08 12.538 0.104541 12.3398 0.290792L7.04822 5.24079L1.80959 0.290792C1.61131 0.104541 1.34308 -5.28759e-07 1.06349 -5.40307e-07C0.783896 -5.51855e-07 0.515667 0.104541 0.31738 0.290792C0.217382 0.383407 0.137829 0.493852 0.0833292 0.615727C0.0288295 0.737602 0.000469168 0.868485 -0.00011258 1.00079C0.000469155 1.1331 0.0288295 1.26398 0.0833291 1.38586C0.137829 1.50773 0.217382 1.61818 0.31738 1.71079L6.29682 7.37079C6.39592 7.4723 6.5162 7.55331 6.65008 7.60871C6.78395 7.66412 6.92852 7.69272 7.07468 7.69272C7.22083 7.69272 7.3654 7.66412 7.49928 7.60871C7.63315 7.55331 7.75343 7.4723 7.85253 7.37079Z" fill="#768396"/>
</svg>
