<svg width="42" height="42" viewBox="0 0 42 42" fill="none" xmlns="http://www.w3.org/2000/svg">
<rect width="42" height="42" rx="9" fill="#F7F7F9"/>
<path fill-rule="evenodd" clip-rule="evenodd" d="M23 11C23 10.4477 22.5523 10 22 10H15C13.3431 10 12 11.3431 12 13V29C12 30.6569 13.3431 32 15 32H27C28.6569 32 30 30.6569 30 29V18C30 17.4477 29.5523 17 29 17H26C24.3431 17 23 15.6569 23 14V11ZM17 22C17 21.4477 17.4477 21 18 21H24C24.5523 21 25 21.4477 25 22C25 22.5523 24.5523 23 24 23H18C17.4477 23 17 22.5523 17 22ZM17 26C17 25.4477 17.4477 25 18 25H21C21.5523 25 22 25.4477 22 26C22 26.5523 21.5523 27 21 27H18C17.4477 27 17 26.5523 17 26Z" fill="#FCC35B"/>
<path d="M25.9774 10.1776C25.4681 9.96399 25 10.4478 25 11.0001V14.0001C25 14.5523 25.4477 15.0001 26 15.0001H29C29.5523 15.0001 30.0361 14.5319 29.8225 14.0226C29.73 13.8021 29.5972 13.5972 29.4142 13.4143L26.5858 10.5858C26.4028 10.4029 26.1979 10.27 25.9774 10.1776Z" fill="#FCC35B"/>
</svg>
