<svg width="42" height="42" viewBox="0 0 42 42" fill="none" xmlns="http://www.w3.org/2000/svg">
<rect width="42" height="42" rx="9" fill="#F7F7F9"/>
<path fill-rule="evenodd" clip-rule="evenodd" d="M14.9483 11.4515C13.1211 11.7184 11.7184 13.1211 11.4515 14.9483C11.2187 16.5423 11 18.6618 11 21C11 22.7155 11.0945 24.4509 11.3202 26.158C11.3736 26.5619 11.8643 26.7213 12.1524 26.4332L15.5858 22.9998C16.3668 22.2188 17.6332 22.2188 18.4142 22.9998L19.6465 24.2321C19.8417 24.4273 20.1583 24.4273 20.3536 24.2321L23.5858 20.9998C24.3669 20.2188 25.6332 20.2188 26.4142 20.9998L30.0231 24.6087C30.3204 24.906 30.827 24.7259 30.8614 24.3069C30.9453 23.285 31 22.1699 31 21C31 18.6618 30.7813 16.5423 30.5485 14.9483C30.2816 13.1211 28.8789 11.7184 27.0517 11.4515C25.4577 11.2187 23.3382 11 21 11C18.6618 11 16.5423 11.2187 14.9483 11.4515ZM19 17C19 18.1046 18.1046 19 17 19C15.8954 19 15 18.1046 15 17C15 15.8954 15.8954 15 17 15C18.1046 15 19 15.8954 19 17Z" fill="#5051F9"/>
<path d="M30.2638 28.077C30.3374 27.9021 30.2884 27.7024 30.1542 27.5683L25.3536 22.7676C25.1583 22.5724 24.8417 22.5724 24.6465 22.7676L21.4142 25.9998C20.6332 26.7809 19.3668 26.7809 18.5858 25.9998L17.3536 24.7676C17.1583 24.5724 16.8417 24.5724 16.6465 24.7676L12.656 28.758C12.4747 28.9394 12.4578 29.2312 12.6408 29.4109C13.25 30.0093 14.0475 30.4169 14.9483 30.5485C16.5423 30.7813 18.6618 31 21 31C23.3382 31 25.4577 30.7813 27.0517 30.5485C28.5189 30.3342 29.7123 29.3876 30.2638 28.077Z" fill="#5051F9"/>
</svg>
