<svg width="42" height="42" viewBox="0 0 42 42" fill="none" xmlns="http://www.w3.org/2000/svg">
<rect width="42" height="42" rx="9" fill="#F7F7F9"/>
<path d="M22 10C22.5523 10 23 10.4477 23 11V14C23 15.6569 24.3431 17 26 17H29C29.5523 17 30 17.4477 30 18V29C30 30.6569 28.6569 32 27 32H15C13.3431 32 12 30.6569 12 29V13C12 11.3431 13.3431 10 15 10H22Z" fill="#1EA7FF"/>
<path d="M25.9774 10.1776C25.4681 9.96399 25 10.4478 25 11.0001V14.0001C25 14.5523 25.4477 15.0001 26 15.0001H29C29.5523 15.0001 30.0361 14.5319 29.8225 14.0226C29.73 13.8021 29.5972 13.5972 29.4142 13.4143L26.5858 10.5858C26.4028 10.4029 26.1979 10.27 25.9774 10.1776Z" fill="#1EA7FF"/>
</svg>
